<svg aria-hidden="true" xmlns="http://www.w3.org/2000/svg">
  <defs>
    <symbol id="icon-envelope" viewBox="0 0 43 32">
      <path d="M38.667 0H4C1.794 0 0 1.794 0 4v24c0 2.206 1.794 4 4 4h34.667c2.206 0 4-1.794 4-4V4c0-2.206-1.794-4-4-4zm0 2.667c.181 0 .353.038.511.103L21.334 18.236 3.49 2.77a1.32 1.32 0 0 1 .511-.103h34.667zm0 26.666H4A1.334 1.334 0 0 1 2.667 28V5.587L20.46 21.008a1.335 1.335 0 0 0 1.748 0L40.001 5.587V28c0 .736-.598 1.333-1.333 1.333z"/>
    </symbol>
    <symbol id="icon-facebook" viewBox="0 0 32 32">
      <path d="M21.329 5.313h2.921V.225C23.746.156 22.013 0 19.994 0c-4.212 0-7.097 2.649-7.097 7.519V12H8.249v5.688h4.648V32h5.699V17.689h4.46l.708-5.688h-5.169V8.082c.001-1.644.444-2.769 2.735-2.769z"/>
    </symbol>
    <symbol id="icon-instagram" viewBox="0 0 32 32">
      <path d="M31.969 9.408c-.075-1.7-.35-2.869-.744-3.882a7.806 7.806 0 0 0-1.851-2.838A7.867 7.867 0 0 0 26.542.844C25.523.45 24.36.175 22.66.1 20.947.019 20.403 0 16.059 0s-4.888.019-6.595.094c-1.7.075-2.869.35-3.882.744a7.803 7.803 0 0 0-2.838 1.85A7.867 7.867 0 0 0 .9 5.52C.506 6.539.231 7.702.156 9.402c-.081 1.713-.1 2.257-.1 6.601s.019 4.888.094 6.595c.075 1.7.35 2.869.744 3.882a7.895 7.895 0 0 0 1.85 2.838 7.867 7.867 0 0 0 2.832 1.844c1.019.394 2.182.669 3.882.744 1.706.075 2.25.094 6.595.094s4.888-.019 6.595-.094c1.7-.075 2.869-.35 3.882-.744a8.184 8.184 0 0 0 4.682-4.682c.394-1.019.669-2.182.744-3.882.075-1.707.094-2.251.094-6.595s-.006-4.888-.081-6.595zm-2.882 13.065c-.069 1.563-.331 2.407-.55 2.969a5.31 5.31 0 0 1-3.038 3.038c-.563.219-1.413.481-2.969.55-1.688.075-2.194.094-6.464.094s-4.782-.019-6.464-.094c-1.563-.069-2.407-.331-2.969-.55a4.926 4.926 0 0 1-1.838-1.194 4.974 4.974 0 0 1-1.194-1.838c-.219-.563-.481-1.413-.55-2.969-.075-1.688-.094-2.194-.094-6.464s.019-4.782.094-6.464c.069-1.563.331-2.407.55-2.969a4.868 4.868 0 0 1 1.2-1.838A4.974 4.974 0 0 1 6.639 3.55c.563-.219 1.413-.481 2.969-.55 1.688-.075 2.194-.094 6.464-.094 4.276 0 4.782.019 6.464.094 1.563.069 2.407.331 2.969.55a4.914 4.914 0 0 1 1.838 1.194 4.974 4.974 0 0 1 1.194 1.838c.219.563.481 1.413.55 2.969.075 1.688.094 2.194.094 6.464s-.019 4.77-.094 6.458z"/>
      <path d="M16.059 7.783c-4.538 0-8.22 3.682-8.22 8.22s3.682 8.22 8.22 8.22 8.22-3.682 8.22-8.22-3.682-8.22-8.22-8.22zm0 13.552a5.333 5.333 0 0 1 0-10.664 5.333 5.333 0 0 1 0 10.664zM26.524 7.458a1.919 1.919 0 1 1-3.838 0 1.919 1.919 0 0 1 3.838 0z"/>
    </symbol>
    <symbol id="icon-phone" viewBox="0 0 20 32">
      <path d="M17 0H3C1.346 0 0 1.346 0 3v26c0 1.654 1.346 3 3 3h14c1.654 0 3-1.346 3-3V3c0-1.654-1.346-3-3-3zM3 2h14a1 1 0 0 1 1 1v21H2V3a1 1 0 0 1 1-1zm14 28H3a1 1 0 0 1-1-1v-3h16v3a1 1 0 0 1-1 1z"/>
      <path d="M4.707 27.478c.391.365.391.956 0 1.321s-1.024.365-1.414 0c-.391-.365-.391-.956 0-1.321s1.024-.365 1.414 0z"/>
    </symbol>
    <symbol id="icon-close" viewBox="0 0 18 18">
<path d="M15 4.10786L13.8921 3L9.5 7.39214L5.10786 3L4 4.10786L8.39214 8.5L4 12.8921L5.10786 14L9.5 9.60786L13.8921 14L15 12.8921L10.6079 8.5L15 4.10786Z"/>
</symbol>
<symbol id="arrow_down" width="40" height="40" viewBox="0 0 42 42" fill="none">
<path d="M21 13V29M21 29L28 22M21 29L14 22" stroke-width="2" stroke-linecap="round" stroke-linejoin="round"/>
<path d="M21 41C32.0456 41 41 32.0456 41 21C41 9.9543 32.0456 1 21 1C9.9543 1 1 9.9543 1 21C1 32.0456 9.9543 41 21 41Z"  stroke-width="2" stroke-linecap="round" stroke-linejoin="round"/>
</symbol>
<symbol id="pulse_hand" viewBox="0 0 28 38" fill="none">
<path d="M5.33944 19.0506L1.72202 23.8738C0.679696 25.2637 0.775037 27.1986 1.94889 28.4793L8.7789 35.9302C9.46266 36.6761 10.4265 37.1008 11.4384 37.1008C13.399 37.1008 16.6054 37.1008 19.7796 37.1008C24.1116 37.1008 26.9996 33.4908 26.9996 29.8807C26.9996 29.8807 26.9996 17.5035 26.9996 14.4092" stroke-linecap="round" stroke-linejoin="round"/>
<path d="M21.585 15.4397C21.585 15.4397 21.585 15.2139 21.585 14.4083C21.585 10.2825 27 10.2825 27 14.4083" stroke-linecap="round" stroke-linejoin="round"/>
<path d="M16.1699 15.4396C16.1699 15.4396 16.1699 13.9565 16.1699 12.3453C16.1699 8.21954 21.585 8.21954 21.585 12.3453C21.585 12.7481 21.585 14.0054 21.585 14.4082C21.585 15.2138 21.585 15.4396 21.585 15.4396"  stroke-linecap="round" stroke-linejoin="round"/>
<path d="M10.7549 15.4404C10.7549 15.4404 10.7549 12.9418 10.7549 10.9278C10.7549 6.80206 16.1699 6.80206 16.1699 10.9278C16.1699 10.9278 16.1699 11.9432 16.1699 12.346C16.1699 13.9572 16.1699 15.4404 16.1699 15.4404"  stroke-linecap="round" stroke-linejoin="round"/>
<path d="M10.7549 15.4401C10.7549 15.4401 10.7549 12.9416 10.7549 10.9276C10.7549 8.83659 10.7549 5.85492 10.7549 3.7057C10.7549 2.21037 9.5427 1 8.04737 1C6.55204 1 5.33984 2.2122 5.33984 3.70753V19.0502V24.4652"  stroke-linecap="round" stroke-linejoin="round"/>
</symbol>
<symbol id="telegram"  viewBox="0 0 26 21" fill="none" >
<path d="M25 1L1 10.4737L9.8421 11.7368M25 1L21.8421 19.9474L9.8421 11.7368M25 1L9.8421 11.7368M9.8421 11.7368V18.6842L13.9459 14.5447" stroke="black" stroke-width="2" stroke-linecap="round" stroke-linejoin="round"/>
</symbol>
<symbol id="viber" viewBox="0 0 26 26" fill="none">
<path d="M15.4341 1.50473C20.1778 2.31736 23.7106 6.07595 24.2661 10.9012" stroke="black" stroke-width="2" stroke-linecap="round" stroke-linejoin="round"/>
<path d="M14.8975 4.69758C18.06 5.23934 20.7096 8.05828 21.0799 11.2751" stroke="black" stroke-width="2" stroke-linecap="round" stroke-linejoin="round"/>
<path d="M14.8144 7.90242C16.4597 8.33553 17.5636 9.50963 17.9057 11.1912" stroke="black" stroke-width="2" stroke-linecap="round" stroke-linejoin="round"/>
<path d="M20.0842 15.9545L15.3646 16.8778C12.1766 15.2623 10.2074 13.4066 9.06135 10.514L9.94375 5.73521L8.27576 1.25749H3.97705C2.68483 1.25749 1.66725 2.33562 1.86024 3.62563C2.34205 6.8461 3.76266 12.6852 7.91531 16.8778C12.2762 21.2807 18.5571 23.1912 22.0139 23.9506C23.3488 24.2439 24.5329 23.1925 24.5329 21.8133V17.666L20.0842 15.9545Z" stroke="black" stroke-width="2" stroke-linecap="round" stroke-linejoin="round"/>
</symbol>

  </defs>
</svg>